<svg width="40" height="40" viewBox="0 0 40 40" fill="none" xmlns="http://www.w3.org/2000/svg">
<circle cx="20" cy="20" r="20" fill="#A950A0"/>
<path d="M19.875 10C19.6468 10.0328 19.437 10.1433 19.281 10.313L12.687 17H8C7.4 17 7 17.4 7 18V20C7 20.6 7.4 21 8 21H8.094L10.812 30.313C10.912 30.713 11.312 31 11.812 31H28.312C28.712 31 29.112 30.712 29.312 30.312L32 21C32.6 21 33 20.6 33 20V18C33 17.4 32.6 17 32 17H27.406L20.72 10.281C20.6104 10.1721 20.4771 10.09 20.3305 10.0413C20.1839 9.9925 20.028 9.97838 19.875 10ZM20 12.438L24.594 17H15.5L20 12.437V12.438Z" fill="#F0F0F0"/>
</svg>
